<?xml version="1.0" standalone="no"?>
<!DOCTYPE svg PUBLIC "-//W3C//DTD SVG 20010904//EN"
 "http://www.w3.org/TR/2001/REC-SVG-20010904/DTD/svg10.dtd">
<svg version="1.0" xmlns="http://www.w3.org/2000/svg"
 width="512.000000pt" height="512.000000pt" viewBox="0 0 512.000000 512.000000"
 preserveAspectRatio="xMidYMid meet">
<metadata>
Created by potrace 1.14, written by Peter Selinger 2001-2017
</metadata>
<g transform="translate(0.000000,512.000000) scale(0.100000,-0.100000)"
fill="#000000" stroke="none">
<path d="M602 4580 c-18 -11 -39 -35 -47 -53 -7 -18 -136 -570 -285 -1227
-214 -939 -271 -1204 -267 -1239 9 -83 93 -131 225 -131 70 0 141 23 219 69
113 67 221 72 323 16 135 -76 149 -80 258 -80 l102 0 0 -47 0 -47 -82 -43
c-151 -80 -298 -243 -361 -401 -59 -148 -73 -353 -33 -502 36 -136 153 -322
227 -360 28 -15 114 -20 143 -9 9 3 16 12 16 20 0 23 96 18 127 -6 25 -20 41
-20 1960 -20 l1935 0 29 29 c28 28 29 33 29 121 0 82 -2 93 -23 114 -13 13
-41 27 -63 30 l-39 7 -75 202 -75 202 -37 12 c-21 7 -127 54 -235 104 -346
160 -506 214 -706 239 -302 38 -541 -72 -701 -324 l-37 -57 -48 73 c-86 131
-230 243 -358 277 -144 39 -315 33 -508 -18 -60 -16 -117 -32 -125 -35 -18 -7
-60 53 -60 84 0 11 -8 33 -17 47 -26 40 -157 140 -234 179 l-69 34 0 48 0 47
104 0 103 0 116 59 c109 55 121 59 185 58 73 0 118 -15 192 -62 129 -82 325
-79 399 5 29 33 36 59 32 110 -5 50 -545 2403 -558 2428 -7 15 -28 37 -46 47
-31 19 -56 20 -817 20 -770 0 -786 0 -818 -20z m288 -71 c0 -5 -5 -53 -12
-106 -11 -89 -14 -97 -39 -112 -16 -9 -33 -25 -39 -36 -5 -11 -107 -445 -226
-965 -271 -1186 -288 -1257 -296 -1265 -11 -11 -106 -7 -144 5 -19 6 -39 20
-44 30 -8 15 51 288 245 1142 141 618 265 1163 276 1211 17 70 25 90 42 97 32
13 237 12 237 -1z m490 -99 l0 -110 -216 0 -216 0 6 28 c3 15 8 52 11 82 3 30
8 67 11 83 l6 27 199 0 199 0 0 -110z m460 93 c1 -10 7 -60 14 -110 l13 -93
-204 0 -203 0 0 110 0 110 190 0 c174 0 190 -1 190 -17z m361 0 c11 -11 48
-151 49 -185 0 -16 -14 -18 -150 -18 -149 0 -150 0 -151 23 0 12 -6 62 -13
110 l-12 88 132 -3 c83 -2 137 -7 145 -15z m-464 -2772 c43 -22 96 -55 117
-73 l38 -33 -249 0 c-267 0 -309 -6 -418 -55 -33 -14 -87 -48 -120 -75 -33
-27 -51 -38 -40 -25 11 12 44 40 73 62 44 33 53 44 50 66 -5 40 -46 41 -101 3
-137 -94 -246 -293 -247 -448 0 -23 -7 -72 -16 -110 -11 -49 -15 -101 -12
-185 2 -65 3 -118 1 -118 -6 0 -43 81 -63 139 -62 185 -38 409 62 579 48 83
179 211 263 258 l70 39 240 5 c132 3 247 7 256 8 9 1 52 -16 96 -37z m976
-270 c69 -24 151 -67 172 -91 15 -16 13 -17 -37 -8 -153 29 -454 -34 -719
-150 -44 -19 -46 -19 -57 -1 -11 17 -29 19 -199 21 l-187 3 154 67 c250 107
394 155 536 178 94 14 269 5 337 -19z m-843 -361 c-199 -86 -201 -88 -250
-209 l-27 -66 -121 -3 -122 -3 31 83 c16 46 44 120 61 166 l31 82 256 0 256 0
-115 -50z m-400 -435 l0 -66 -122 3 -123 3 -3 63 -3 62 126 0 125 0 0 -65z"/>
<path d="M3219 4347 c-29 -22 -37 -50 -54 -192 -10 -77 -21 -144 -25 -148 -4
-5 -65 -21 -136 -38 -188 -43 -204 -52 -204 -114 0 -50 20 -66 164 -135 l142
-68 -12 -128 c-7 -71 -13 -143 -13 -161 -1 -41 34 -81 78 -90 33 -6 37 -2 151
114 l118 120 137 -58 c75 -33 149 -59 164 -59 33 0 68 31 77 67 7 27 -16 80
-105 239 l-39 72 88 101 c49 55 96 111 104 123 20 29 20 67 0 96 -29 42 -53
44 -215 13 l-151 -28 -22 36 c-12 20 -49 80 -81 134 -32 54 -66 102 -76 107
-24 14 -71 12 -90 -3z m122 -197 l72 -121 -24 -16 c-64 -43 -206 -205 -245
-281 0 -1 -59 25 -129 58 -70 33 -126 62 -124 64 2 2 60 16 129 31 145 31 184
46 198 72 6 11 19 85 28 166 10 81 19 147 21 147 1 0 34 -54 74 -120z"/>
<path d="M4379 4031 c-16 -16 -29 -39 -29 -51 0 -13 22 -61 50 -109 97 -169
137 -328 127 -506 -14 -242 -105 -436 -284 -605 -167 -159 -372 -240 -602
-240 -173 0 -326 42 -472 131 -82 49 -120 53 -158 15 -38 -39 -33 -80 19 -162
54 -84 224 -257 301 -307 339 -220 743 -247 1094 -72 302 149 519 429 591 760
21 96 24 321 5 410 -62 302 -228 555 -466 713 -95 63 -131 67 -176 23z m165
-140 c90 -122 164 -306 187 -460 17 -118 7 -293 -24 -411 -95 -362 -373 -642
-733 -736 -135 -36 -335 -38 -467 -6 -131 32 -235 79 -289 130 -42 39 -148
180 -148 197 0 4 15 -3 33 -14 414 -273 983 -183 1293 204 260 324 289 776 74
1127 -17 26 -30 50 -30 53 0 16 76 -45 104 -84z"/>
</g>
</svg>
